<mxfile host="app.diagrams.net" modified="2023-09-14T00:29:17.719Z" agent="Mozilla/5.0 (Windows NT 10.0; Win64; x64) AppleWebKit/537.36 (KHTML, like Gecko) Chrome/116.0.0.0 Safari/537.36 Edg/116.0.1938.76" etag="Otfa1s0ObSqLBNJac8Cp" version="21.7.5" type="github">
  <diagram name="Page-1" id="So7CldKEgvZIwJ1uTpD8">
    <mxGraphModel dx="2789" dy="713" grid="1" gridSize="10" guides="1" tooltips="1" connect="1" arrows="1" fold="1" page="1" pageScale="1" pageWidth="1400" pageHeight="850" math="0" shadow="0">
      <root>
        <mxCell id="0" />
        <mxCell id="1" parent="0" />
        <mxCell id="QDhybvv9v9J4l2uP6fpV-1" value="" style="image;points=[];aspect=fixed;html=1;align=center;shadow=0;dashed=0;image=img/lib/allied_telesis/computer_and_terminals/Personal_Computer_with_Server.svg;" vertex="1" parent="1">
          <mxGeometry x="70" y="380" width="120" height="120" as="geometry" />
        </mxCell>
        <mxCell id="QDhybvv9v9J4l2uP6fpV-4" value="" style="image;html=1;image=img/lib/clip_art/computers/Server_128x128.png" vertex="1" parent="1">
          <mxGeometry x="120" y="200" width="50" height="40" as="geometry" />
        </mxCell>
        <mxCell id="QDhybvv9v9J4l2uP6fpV-6" value="" style="image;html=1;image=img/lib/clip_art/computers/Server_128x128.png" vertex="1" parent="1">
          <mxGeometry x="105" y="300" width="50" height="40" as="geometry" />
        </mxCell>
        <mxCell id="QDhybvv9v9J4l2uP6fpV-7" value="" style="image;html=1;image=img/lib/clip_art/computers/Server_128x128.png" vertex="1" parent="1">
          <mxGeometry x="30" y="230" width="50" height="40" as="geometry" />
        </mxCell>
        <mxCell id="QDhybvv9v9J4l2uP6fpV-10" value="" style="endArrow=classic;startArrow=classic;html=1;rounded=0;" edge="1" parent="1" source="QDhybvv9v9J4l2uP6fpV-1">
          <mxGeometry width="50" height="50" relative="1" as="geometry">
            <mxPoint x="130" y="370" as="sourcePoint" />
            <mxPoint x="130" y="340" as="targetPoint" />
          </mxGeometry>
        </mxCell>
        <mxCell id="QDhybvv9v9J4l2uP6fpV-11" value="" style="endArrow=classic;startArrow=classic;html=1;rounded=0;exitX=0.75;exitY=0;exitDx=0;exitDy=0;entryX=0.8;entryY=1;entryDx=0;entryDy=0;entryPerimeter=0;" edge="1" parent="1">
          <mxGeometry width="50" height="50" relative="1" as="geometry">
            <mxPoint x="105" y="300" as="sourcePoint" />
            <mxPoint x="65" y="260" as="targetPoint" />
          </mxGeometry>
        </mxCell>
        <mxCell id="QDhybvv9v9J4l2uP6fpV-13" value="" style="endArrow=classic;startArrow=classic;html=1;rounded=0;exitX=0.75;exitY=0;exitDx=0;exitDy=0;" edge="1" parent="1" source="QDhybvv9v9J4l2uP6fpV-6">
          <mxGeometry width="50" height="50" relative="1" as="geometry">
            <mxPoint x="250" y="280" as="sourcePoint" />
            <mxPoint x="143" y="240" as="targetPoint" />
          </mxGeometry>
        </mxCell>
        <mxCell id="QDhybvv9v9J4l2uP6fpV-14" value="" style="endArrow=classic;startArrow=classic;html=1;rounded=0;" edge="1" parent="1">
          <mxGeometry width="50" height="50" relative="1" as="geometry">
            <mxPoint x="160" y="320" as="sourcePoint" />
            <mxPoint x="210" y="270" as="targetPoint" />
          </mxGeometry>
        </mxCell>
        <mxCell id="QDhybvv9v9J4l2uP6fpV-15" value="" style="image;html=1;image=img/lib/clip_art/computers/Server_128x128.png" vertex="1" parent="1">
          <mxGeometry x="210" y="220" width="50" height="40" as="geometry" />
        </mxCell>
        <mxCell id="QDhybvv9v9J4l2uP6fpV-16" value="" style="endArrow=classic;startArrow=classic;html=1;rounded=0;" edge="1" parent="1">
          <mxGeometry width="50" height="50" relative="1" as="geometry">
            <mxPoint x="170" y="500" as="sourcePoint" />
            <mxPoint x="170" y="570" as="targetPoint" />
          </mxGeometry>
        </mxCell>
        <mxCell id="QDhybvv9v9J4l2uP6fpV-65" value="" style="edgeStyle=orthogonalEdgeStyle;rounded=0;orthogonalLoop=1;jettySize=auto;html=1;" edge="1" parent="1" source="QDhybvv9v9J4l2uP6fpV-20" target="QDhybvv9v9J4l2uP6fpV-61">
          <mxGeometry relative="1" as="geometry" />
        </mxCell>
        <mxCell id="QDhybvv9v9J4l2uP6fpV-20" value="" style="image;html=1;image=img/lib/clip_art/computers/Server_Tower_128x128.png" vertex="1" parent="1">
          <mxGeometry x="660" y="410" width="80" height="80" as="geometry" />
        </mxCell>
        <mxCell id="QDhybvv9v9J4l2uP6fpV-17" value="" style="endArrow=classic;html=1;rounded=0;" edge="1" parent="1">
          <mxGeometry relative="1" as="geometry">
            <mxPoint x="170" y="590" as="sourcePoint" />
            <mxPoint x="700" y="590" as="targetPoint" />
          </mxGeometry>
        </mxCell>
        <mxCell id="QDhybvv9v9J4l2uP6fpV-18" value="172.8.8.8" style="edgeLabel;resizable=0;html=1;align=center;verticalAlign=middle;" connectable="0" vertex="1" parent="QDhybvv9v9J4l2uP6fpV-17">
          <mxGeometry relative="1" as="geometry" />
        </mxCell>
        <mxCell id="QDhybvv9v9J4l2uP6fpV-19" value="172.8.8.8" style="edgeLabel;resizable=0;html=1;align=left;verticalAlign=bottom;" connectable="0" vertex="1" parent="QDhybvv9v9J4l2uP6fpV-17">
          <mxGeometry x="-1" relative="1" as="geometry">
            <mxPoint x="-20" as="offset" />
          </mxGeometry>
        </mxCell>
        <mxCell id="QDhybvv9v9J4l2uP6fpV-22" value="" style="endArrow=classic;startArrow=classic;html=1;rounded=0;" edge="1" parent="1">
          <mxGeometry width="50" height="50" relative="1" as="geometry">
            <mxPoint x="699" y="585" as="sourcePoint" />
            <mxPoint x="699" y="530" as="targetPoint" />
          </mxGeometry>
        </mxCell>
        <mxCell id="QDhybvv9v9J4l2uP6fpV-23" value="" style="endArrow=classic;startArrow=classic;html=1;rounded=0;" edge="1" parent="1">
          <mxGeometry width="50" height="50" relative="1" as="geometry">
            <mxPoint x="720" y="410" as="sourcePoint" />
            <mxPoint x="800" y="320" as="targetPoint" />
          </mxGeometry>
        </mxCell>
        <mxCell id="QDhybvv9v9J4l2uP6fpV-24" value="" style="endArrow=classic;startArrow=classic;html=1;rounded=0;" edge="1" parent="1" source="QDhybvv9v9J4l2uP6fpV-30">
          <mxGeometry width="50" height="50" relative="1" as="geometry">
            <mxPoint x="699" y="410" as="sourcePoint" />
            <mxPoint x="699" y="310" as="targetPoint" />
          </mxGeometry>
        </mxCell>
        <mxCell id="QDhybvv9v9J4l2uP6fpV-25" value="" style="endArrow=classic;startArrow=classic;html=1;rounded=0;" edge="1" parent="1">
          <mxGeometry width="50" height="50" relative="1" as="geometry">
            <mxPoint x="580" y="340" as="sourcePoint" />
            <mxPoint x="670" y="410" as="targetPoint" />
          </mxGeometry>
        </mxCell>
        <mxCell id="QDhybvv9v9J4l2uP6fpV-26" value="" style="image;html=1;image=img/lib/clip_art/computers/Server_Tower_128x128.png" vertex="1" parent="1">
          <mxGeometry x="510" y="250" width="80" height="80" as="geometry" />
        </mxCell>
        <mxCell id="QDhybvv9v9J4l2uP6fpV-27" value="" style="image;html=1;image=img/lib/clip_art/computers/Server_Tower_128x128.png" vertex="1" parent="1">
          <mxGeometry x="660" y="220" width="80" height="80" as="geometry" />
        </mxCell>
        <mxCell id="QDhybvv9v9J4l2uP6fpV-28" value="" style="image;html=1;image=img/lib/clip_art/computers/Server_Tower_128x128.png" vertex="1" parent="1">
          <mxGeometry x="770" y="240" width="80" height="80" as="geometry" />
        </mxCell>
        <mxCell id="QDhybvv9v9J4l2uP6fpV-29" value="" style="image;aspect=fixed;html=1;points=[];align=center;fontSize=12;image=img/lib/azure2/networking/Azure_Firewall_Manager.svg;" vertex="1" parent="1">
          <mxGeometry x="723.33" y="370" width="46.67" height="40" as="geometry" />
        </mxCell>
        <mxCell id="QDhybvv9v9J4l2uP6fpV-31" value="" style="endArrow=classic;startArrow=classic;html=1;rounded=0;" edge="1" parent="1" target="QDhybvv9v9J4l2uP6fpV-30">
          <mxGeometry width="50" height="50" relative="1" as="geometry">
            <mxPoint x="699" y="410" as="sourcePoint" />
            <mxPoint x="699" y="310" as="targetPoint" />
          </mxGeometry>
        </mxCell>
        <mxCell id="QDhybvv9v9J4l2uP6fpV-30" value="" style="image;aspect=fixed;html=1;points=[];align=center;fontSize=12;image=img/lib/azure2/networking/Azure_Firewall_Manager.svg;" vertex="1" parent="1">
          <mxGeometry x="676.6600000000001" y="340" width="46.67" height="40" as="geometry" />
        </mxCell>
        <mxCell id="QDhybvv9v9J4l2uP6fpV-32" value="" style="image;aspect=fixed;html=1;points=[];align=center;fontSize=12;image=img/lib/azure2/networking/Azure_Firewall_Manager.svg;" vertex="1" parent="1">
          <mxGeometry x="600" y="360" width="46.67" height="40" as="geometry" />
        </mxCell>
        <mxCell id="QDhybvv9v9J4l2uP6fpV-33" value="" style="sketch=0;outlineConnect=0;fontColor=#232F3E;gradientColor=none;fillColor=#232F3D;strokeColor=none;dashed=0;verticalLabelPosition=bottom;verticalAlign=top;align=center;html=1;fontSize=12;fontStyle=0;aspect=fixed;pointerEvents=1;shape=mxgraph.aws4.ssl_padlock;" vertex="1" parent="1">
          <mxGeometry x="685" y="500" width="30.79" height="30" as="geometry" />
        </mxCell>
        <mxCell id="QDhybvv9v9J4l2uP6fpV-34" value="" style="image;html=1;image=img/lib/clip_art/computers/Database_128x128.png" vertex="1" parent="1">
          <mxGeometry x="810" y="150" width="60" height="50" as="geometry" />
        </mxCell>
        <mxCell id="QDhybvv9v9J4l2uP6fpV-35" value="" style="image;html=1;image=img/lib/clip_art/computers/Database_128x128.png" vertex="1" parent="1">
          <mxGeometry x="655.79" y="120" width="60" height="50" as="geometry" />
        </mxCell>
        <mxCell id="QDhybvv9v9J4l2uP6fpV-36" value="" style="image;html=1;image=img/lib/clip_art/computers/Database_128x128.png" vertex="1" parent="1">
          <mxGeometry x="520" y="160" width="60" height="50" as="geometry" />
        </mxCell>
        <mxCell id="QDhybvv9v9J4l2uP6fpV-37" value="" style="endArrow=classic;startArrow=classic;html=1;rounded=0;" edge="1" parent="1">
          <mxGeometry width="50" height="50" relative="1" as="geometry">
            <mxPoint x="810" y="235" as="sourcePoint" />
            <mxPoint x="835" y="205" as="targetPoint" />
          </mxGeometry>
        </mxCell>
        <mxCell id="QDhybvv9v9J4l2uP6fpV-38" value="" style="endArrow=classic;startArrow=classic;html=1;rounded=0;exitX=0.325;exitY=-0.075;exitDx=0;exitDy=0;exitPerimeter=0;" edge="1" parent="1" source="QDhybvv9v9J4l2uP6fpV-27">
          <mxGeometry width="50" height="50" relative="1" as="geometry">
            <mxPoint x="680" y="210" as="sourcePoint" />
            <mxPoint x="685" y="180" as="targetPoint" />
          </mxGeometry>
        </mxCell>
        <mxCell id="QDhybvv9v9J4l2uP6fpV-40" value="" style="endArrow=classic;startArrow=classic;html=1;rounded=0;exitX=0.325;exitY=-0.075;exitDx=0;exitDy=0;exitPerimeter=0;" edge="1" parent="1">
          <mxGeometry width="50" height="50" relative="1" as="geometry">
            <mxPoint x="550.5" y="250" as="sourcePoint" />
            <mxPoint x="549.5" y="216" as="targetPoint" />
          </mxGeometry>
        </mxCell>
        <mxCell id="QDhybvv9v9J4l2uP6fpV-41" value="Database" style="text;html=1;strokeColor=none;fillColor=none;align=center;verticalAlign=middle;whiteSpace=wrap;rounded=0;" vertex="1" parent="1">
          <mxGeometry x="500" y="130" width="60" height="30" as="geometry" />
        </mxCell>
        <mxCell id="QDhybvv9v9J4l2uP6fpV-42" value="Database" style="text;html=1;strokeColor=none;fillColor=none;align=center;verticalAlign=middle;whiteSpace=wrap;rounded=0;" vertex="1" parent="1">
          <mxGeometry x="655.79" y="90" width="60" height="30" as="geometry" />
        </mxCell>
        <mxCell id="QDhybvv9v9J4l2uP6fpV-43" value="Database" style="text;html=1;strokeColor=none;fillColor=none;align=center;verticalAlign=middle;whiteSpace=wrap;rounded=0;" vertex="1" parent="1">
          <mxGeometry x="810" y="110" width="60" height="30" as="geometry" />
        </mxCell>
        <mxCell id="QDhybvv9v9J4l2uP6fpV-44" value="Web Server" style="text;html=1;strokeColor=none;fillColor=none;align=center;verticalAlign=middle;whiteSpace=wrap;rounded=0;" vertex="1" parent="1">
          <mxGeometry x="500" y="330" width="60" height="30" as="geometry" />
        </mxCell>
        <mxCell id="QDhybvv9v9J4l2uP6fpV-46" value="Application Server" style="text;html=1;strokeColor=none;fillColor=none;align=center;verticalAlign=middle;whiteSpace=wrap;rounded=0;" vertex="1" parent="1">
          <mxGeometry x="640" y="300" width="60" height="30" as="geometry" />
        </mxCell>
        <mxCell id="QDhybvv9v9J4l2uP6fpV-47" value="Web Server" style="text;html=1;strokeColor=none;fillColor=none;align=center;verticalAlign=middle;whiteSpace=wrap;rounded=0;" vertex="1" parent="1">
          <mxGeometry x="810" y="320" width="60" height="30" as="geometry" />
        </mxCell>
        <mxCell id="QDhybvv9v9J4l2uP6fpV-48" value="SSL" style="text;html=1;strokeColor=none;fillColor=none;align=center;verticalAlign=middle;whiteSpace=wrap;rounded=0;" vertex="1" parent="1">
          <mxGeometry x="700" y="500" width="60" height="30" as="geometry" />
        </mxCell>
        <mxCell id="QDhybvv9v9J4l2uP6fpV-49" style="edgeStyle=orthogonalEdgeStyle;rounded=0;orthogonalLoop=1;jettySize=auto;html=1;exitX=0.5;exitY=1;exitDx=0;exitDy=0;" edge="1" parent="1" source="QDhybvv9v9J4l2uP6fpV-48" target="QDhybvv9v9J4l2uP6fpV-48">
          <mxGeometry relative="1" as="geometry" />
        </mxCell>
        <mxCell id="QDhybvv9v9J4l2uP6fpV-51" value="Computer" style="text;html=1;strokeColor=none;fillColor=none;align=center;verticalAlign=middle;whiteSpace=wrap;rounded=0;" vertex="1" parent="1">
          <mxGeometry x="80" y="500" width="60" height="30" as="geometry" />
        </mxCell>
        <mxCell id="QDhybvv9v9J4l2uP6fpV-52" value="google.com" style="text;html=1;strokeColor=none;fillColor=none;align=center;verticalAlign=middle;whiteSpace=wrap;rounded=0;rotation=30;" vertex="1" parent="1">
          <mxGeometry x="155" y="425" width="1.34" height="10" as="geometry" />
        </mxCell>
        <mxCell id="QDhybvv9v9J4l2uP6fpV-54" value="DNS Resolver" style="text;html=1;strokeColor=none;fillColor=none;align=center;verticalAlign=middle;whiteSpace=wrap;rounded=0;" vertex="1" parent="1">
          <mxGeometry x="130.00000000000003" y="320" width="60" height="30" as="geometry" />
        </mxCell>
        <mxCell id="QDhybvv9v9J4l2uP6fpV-55" value="Root Server" style="text;html=1;strokeColor=none;fillColor=none;align=center;verticalAlign=middle;whiteSpace=wrap;rounded=0;" vertex="1" parent="1">
          <mxGeometry x="220" y="190" width="60" height="30" as="geometry" />
        </mxCell>
        <mxCell id="QDhybvv9v9J4l2uP6fpV-56" value="TLD server" style="text;html=1;strokeColor=none;fillColor=none;align=center;verticalAlign=middle;whiteSpace=wrap;rounded=0;" vertex="1" parent="1">
          <mxGeometry x="105" y="160" width="60" height="30" as="geometry" />
        </mxCell>
        <mxCell id="QDhybvv9v9J4l2uP6fpV-57" value="Authentication Server" style="text;html=1;strokeColor=none;fillColor=none;align=center;verticalAlign=middle;whiteSpace=wrap;rounded=0;" vertex="1" parent="1">
          <mxGeometry x="-10" y="200" width="60" height="30" as="geometry" />
        </mxCell>
        <mxCell id="QDhybvv9v9J4l2uP6fpV-58" value="Firewall" style="text;html=1;strokeColor=none;fillColor=none;align=center;verticalAlign=middle;whiteSpace=wrap;rounded=0;" vertex="1" parent="1">
          <mxGeometry x="570" y="380" width="60" height="30" as="geometry" />
        </mxCell>
        <mxCell id="QDhybvv9v9J4l2uP6fpV-59" value="Firewall" style="text;html=1;strokeColor=none;fillColor=none;align=center;verticalAlign=middle;whiteSpace=wrap;rounded=0;" vertex="1" parent="1">
          <mxGeometry x="669.99" y="360" width="60" height="20" as="geometry" />
        </mxCell>
        <mxCell id="QDhybvv9v9J4l2uP6fpV-60" value="Firewall" style="text;html=1;strokeColor=none;fillColor=none;align=center;verticalAlign=middle;whiteSpace=wrap;rounded=0;" vertex="1" parent="1">
          <mxGeometry x="730" y="390" width="60" height="30" as="geometry" />
        </mxCell>
        <mxCell id="QDhybvv9v9J4l2uP6fpV-66" value="" style="ellipse;shape=cloud;whiteSpace=wrap;html=1;" vertex="1" parent="1">
          <mxGeometry x="330" y="520" width="200" height="130" as="geometry" />
        </mxCell>
        <mxCell id="QDhybvv9v9J4l2uP6fpV-61" value="Load Balancer" style="text;html=1;strokeColor=none;fillColor=none;align=center;verticalAlign=middle;whiteSpace=wrap;rounded=0;" vertex="1" parent="1">
          <mxGeometry x="830" y="450" width="60" height="30" as="geometry" />
        </mxCell>
        <mxCell id="QDhybvv9v9J4l2uP6fpV-67" value="Internet" style="text;html=1;strokeColor=none;fillColor=none;align=center;verticalAlign=middle;whiteSpace=wrap;rounded=0;" vertex="1" parent="1">
          <mxGeometry x="390" y="570" width="60" height="30" as="geometry" />
        </mxCell>
        <mxCell id="QDhybvv9v9J4l2uP6fpV-70" value="" style="edgeStyle=orthogonalEdgeStyle;rounded=0;orthogonalLoop=1;jettySize=auto;html=1;" edge="1" parent="1" source="QDhybvv9v9J4l2uP6fpV-68">
          <mxGeometry relative="1" as="geometry">
            <mxPoint x="200" y="460" as="targetPoint" />
          </mxGeometry>
        </mxCell>
        <mxCell id="QDhybvv9v9J4l2uP6fpV-68" value="200&lt;br&gt;https" style="text;html=1;strokeColor=none;fillColor=none;align=center;verticalAlign=middle;whiteSpace=wrap;rounded=0;" vertex="1" parent="1">
          <mxGeometry x="180" y="510" width="60" height="30" as="geometry" />
        </mxCell>
        <mxCell id="QDhybvv9v9J4l2uP6fpV-72" value="" style="endArrow=classic;startArrow=classic;html=1;rounded=0;" edge="1" parent="1" target="QDhybvv9v9J4l2uP6fpV-68">
          <mxGeometry width="50" height="50" relative="1" as="geometry">
            <mxPoint x="260" y="590" as="sourcePoint" />
            <mxPoint x="260" y="520" as="targetPoint" />
          </mxGeometry>
        </mxCell>
      </root>
    </mxGraphModel>
  </diagram>
</mxfile>
